<svg width="227" height="51" viewBox="0 0 227 51" fill="none" xmlns="http://www.w3.org/2000/svg">
<path d="M21.6606 24.2514C24.9317 24.4838 28.2264 23.1245 28.3677 19.5684C28.4323 16.2431 28.3301 10.719 28.501 5.07279C28.5013 5.07199 28.501 5.07279 28.501 5.07279C25.3301 4.71098 21.4718 5.12881 21.4438 10.9767C21.4357 12.595 21.8541 13.4162 21.6606 24.2514Z" fill="#1A1D21"/>
<path d="M21.6605 24.2515C11.27 20.9037 7.73871 11.8444 9.40189 6.20258C9.40189 6.20258 7.49778 10.3756 6.95133 14.7487C6.62281 17.3755 9.23964 21.9156 12.6361 22.985C17.0726 24.3823 21.6605 24.2515 21.6605 24.2515Z" stroke="#1A1D21" stroke-width="0.318521" stroke-miterlimit="10"/>
<path d="M21.3699 24.1681C12.7825 19.3746 10.2249 11.897 9.11133 6.11914" stroke="#1A1D21" stroke-width="0.318521" stroke-miterlimit="10"/>
<path d="M21.3701 24.168C12.7779 23.9248 4.97597 17.5138 9.11152 6.11909" stroke="#1A1D21" stroke-width="0.318521" stroke-miterlimit="10"/>
<path d="M26.5409 34.0066C26.7505 30.7782 25.3478 27.514 21.7453 27.3464C18.3772 27.2564 12.7834 27.3137 7.06398 27.1004C7.06317 27.1001 7.06398 27.1004 7.06398 27.1004C6.72258 30.2288 7.17618 34.042 13.0988 34.1159C14.7378 34.1366 15.5662 33.7299 26.5409 34.0066Z" fill="#1A1D21"/>
<path d="M35.3421 26.6982C32.071 26.4658 28.7763 27.8251 28.635 31.3812C28.5704 34.7065 28.6726 40.2306 28.5017 45.8768C28.5017 45.8768 28.5014 45.8776 28.5017 45.8768C31.6726 46.2386 35.5309 45.8208 35.5589 39.9729C35.567 38.3546 35.1486 37.5334 35.3421 26.6982Z" fill="#1A1D21"/>
<path d="M35.3417 26.6981C45.7322 30.0459 49.2635 39.1052 47.6003 44.7471C47.6003 44.7471 49.5044 40.574 50.0508 36.201C50.3794 33.5742 47.7625 29.0341 44.3661 27.9646C39.9298 26.5665 35.3417 26.6981 35.3417 26.6981Z" stroke="#1A1D21" stroke-width="0.318521" stroke-miterlimit="10"/>
<path d="M35.3418 26.6981C43.9292 31.4916 46.4868 38.9692 47.6004 44.747" stroke="#1A1D21" stroke-width="0.318521" stroke-miterlimit="10"/>
<path d="M28.0268 19.4705C27.8173 22.6989 29.2199 25.9631 32.8224 26.1307C36.1905 26.2207 41.7843 26.1634 47.5037 26.3767C47.5037 26.3767 47.5046 26.377 47.5037 26.3767C47.8451 23.2483 47.3915 19.4351 41.4689 19.3612C39.83 19.3405 39.0016 19.7472 28.0268 19.4705Z" fill="#1A1D21"/>
<path d="M77.7441 40.9675L85.8401 10.1675H95.9601L104.056 40.9675H98.0721L96.4001 34.1915H85.4001L83.7281 40.9675H77.7441ZM86.7641 28.8235H95.0361L91.2961 13.8195H90.5041L86.7641 28.8235ZM116.983 41.5835C114.138 41.5835 111.806 40.9675 109.987 39.7355C108.168 38.5035 107.068 36.7435 106.687 34.4555L111.791 33.1355C111.996 34.1622 112.334 34.9689 112.803 35.5555C113.302 36.1422 113.903 36.5675 114.607 36.8315C115.34 37.0662 116.132 37.1835 116.983 37.1835C118.274 37.1835 119.227 36.9635 119.843 36.5235C120.459 36.0542 120.767 35.4822 120.767 34.8075C120.767 34.1329 120.474 33.6195 119.887 33.2675C119.3 32.8862 118.362 32.5782 117.071 32.3435L115.839 32.1235C114.314 31.8302 112.92 31.4342 111.659 30.9355C110.398 30.4075 109.386 29.6889 108.623 28.7795C107.86 27.8702 107.479 26.6969 107.479 25.2595C107.479 23.0889 108.271 21.4315 109.855 20.2875C111.439 19.1142 113.522 18.5275 116.103 18.5275C118.538 18.5275 120.562 19.0702 122.175 20.1555C123.788 21.2409 124.844 22.6635 125.343 24.4235L120.195 26.0075C119.96 24.8929 119.476 24.1009 118.743 23.6315C118.039 23.1622 117.159 22.9275 116.103 22.9275C115.047 22.9275 114.24 23.1182 113.683 23.4995C113.126 23.8515 112.847 24.3502 112.847 24.9955C112.847 25.6995 113.14 26.2275 113.727 26.5795C114.314 26.9022 115.106 27.1515 116.103 27.3275L117.335 27.5475C118.978 27.8409 120.459 28.2369 121.779 28.7355C123.128 29.2049 124.184 29.8942 124.947 30.8035C125.739 31.6835 126.135 32.8862 126.135 34.4115C126.135 36.6995 125.299 38.4742 123.627 39.7355C121.984 40.9675 119.77 41.5835 116.983 41.5835ZM138.923 40.9675C137.486 40.9675 136.313 40.5275 135.403 39.6475C134.523 38.7382 134.083 37.5355 134.083 36.0395V23.7195H128.627V19.1435H134.083V12.3675H139.627V19.1435H145.611V23.7195H139.627V35.0715C139.627 35.9515 140.038 36.3915 140.859 36.3915H145.083V40.9675H138.923ZM150.63 40.9675V19.1435H156.086V21.6075H156.878C157.2 20.7275 157.728 20.0822 158.462 19.6715C159.224 19.2609 160.104 19.0555 161.102 19.0555H163.742V23.9835H161.014C159.606 23.9835 158.447 24.3649 157.538 25.1275C156.628 25.8609 156.174 27.0049 156.174 28.5595V40.9675H150.63ZM168.075 40.9675V19.1435H173.619V40.9675H168.075ZM170.847 16.5915C169.85 16.5915 168.999 16.2689 168.295 15.6235C167.62 14.9782 167.283 14.1275 167.283 13.0715C167.283 12.0155 167.62 11.1649 168.295 10.5195C168.999 9.87419 169.85 9.55153 170.847 9.55153C171.874 9.55153 172.724 9.87419 173.399 10.5195C174.074 11.1649 174.411 12.0155 174.411 13.0715C174.411 14.1275 174.074 14.9782 173.399 15.6235C172.724 16.2689 171.874 16.5915 170.847 16.5915ZM177.827 40.9675L185.747 29.9675L177.915 19.1435H184.339L189.311 26.4035H190.103L195.075 19.1435H201.499L193.667 29.9675L201.587 40.9675H195.075L190.103 33.6195H189.311L184.339 40.9675H177.827ZM209.278 41.5835C208.104 41.5835 207.107 41.2022 206.286 40.4395C205.494 39.6475 205.098 38.6355 205.098 37.4035C205.098 36.1715 205.494 35.1742 206.286 34.4115C207.107 33.6195 208.104 33.2235 209.278 33.2235C210.48 33.2235 211.478 33.6195 212.27 34.4115C213.062 35.1742 213.458 36.1715 213.458 37.4035C213.458 38.6355 213.062 39.6475 212.27 40.4395C211.478 41.2022 210.48 41.5835 209.278 41.5835Z" fill="black"/>
</svg>
