<svg width="27" height="27" viewBox="0 0 27 27" fill="none" xmlns="http://www.w3.org/2000/svg">
<mask id="mask0_1_697" style="mask-type:alpha" maskUnits="userSpaceOnUse" x="0" y="0" width="27" height="27">
<rect width="27" height="27" fill="#D9D9D9"/>
</mask>
<g mask="url(#mask0_1_697)">
<path d="M13.5 24.75C12.0938 24.75 10.7766 24.4828 9.54844 23.9484C8.32031 23.4141 7.25156 22.6922 6.34219 21.7828C5.43281 20.8734 4.71094 19.8047 4.17656 18.5766C3.64219 17.3484 3.375 16.0312 3.375 14.625C3.375 13.2187 3.64219 11.9016 4.17656 10.6734C4.71094 9.4453 5.43281 8.37655 6.34219 7.46718C7.25156 6.5578 8.32031 5.83593 9.54844 5.30155C10.7766 4.76718 12.0938 4.49999 13.5 4.49999C14.9063 4.49999 16.2234 4.76718 17.4516 5.30155C18.6797 5.83593 19.7484 6.5578 20.6578 7.46718C21.5672 8.37655 22.2891 9.4453 22.8234 10.6734C23.3578 11.9016 23.625 13.2187 23.625 14.625C23.625 16.0312 23.3578 17.3484 22.8234 18.5766C22.2891 19.8047 21.5672 20.8734 20.6578 21.7828C19.7484 22.6922 18.6797 23.4141 17.4516 23.9484C16.2234 24.4828 14.9063 24.75 13.5 24.75ZM16.65 19.35L18.225 17.775L14.625 14.175V8.99999H12.375V15.075L16.65 19.35ZM6.3 2.64374L7.875 4.21874L3.09375 8.99999L1.51875 7.42499L6.3 2.64374ZM20.7 2.64374L25.4813 7.42499L23.9063 8.99999L19.125 4.21874L20.7 2.64374ZM13.5 22.5C15.6938 22.5 17.5547 21.7359 19.0828 20.2078C20.6109 18.6797 21.375 16.8187 21.375 14.625C21.375 12.4312 20.6109 10.5703 19.0828 9.04218C17.5547 7.51405 15.6938 6.74999 13.5 6.74999C11.3063 6.74999 9.44531 7.51405 7.91719 9.04218C6.38906 10.5703 5.625 12.4312 5.625 14.625C5.625 16.8187 6.38906 18.6797 7.91719 20.2078C9.44531 21.7359 11.3063 22.5 13.5 22.5Z" fill="#E8E9E9"/>
</g>
</svg>
