<svg width="27" height="27" viewBox="0 0 27 27" fill="none" xmlns="http://www.w3.org/2000/svg">
<mask id="mask0_1_694" style="mask-type:alpha" maskUnits="userSpaceOnUse" x="0" y="0" width="27" height="27">
<rect width="27" height="27" fill="#D9D9D9"/>
</mask>
<g mask="url(#mask0_1_694)">
<path d="M13.5 13.5C14.1187 13.5 14.6484 13.2797 15.0891 12.8391C15.5297 12.3984 15.75 11.8687 15.75 11.25C15.75 10.6313 15.5297 10.1016 15.0891 9.66094C14.6484 9.22031 14.1187 9 13.5 9C12.8813 9 12.3516 9.22031 11.9109 9.66094C11.4703 10.1016 11.25 10.6313 11.25 11.25C11.25 11.8687 11.4703 12.3984 11.9109 12.8391C12.3516 13.2797 12.8813 13.5 13.5 13.5ZM13.5 21.7688C15.7875 19.6688 17.4844 17.7609 18.5906 16.0453C19.6969 14.3297 20.25 12.8062 20.25 11.475C20.25 9.43125 19.5984 7.75781 18.2953 6.45469C16.9922 5.15156 15.3938 4.5 13.5 4.5C11.6062 4.5 10.0078 5.15156 8.70469 6.45469C7.40156 7.75781 6.75 9.43125 6.75 11.475C6.75 12.8062 7.30313 14.3297 8.40938 16.0453C9.51562 17.7609 11.2125 19.6688 13.5 21.7688ZM13.5 24.75C10.4812 22.1812 8.22656 19.7953 6.73594 17.5922C5.24531 15.3891 4.5 13.35 4.5 11.475C4.5 8.6625 5.40469 6.42188 7.21406 4.75313C9.02344 3.08438 11.1188 2.25 13.5 2.25C15.8812 2.25 17.9766 3.08438 19.7859 4.75313C21.5953 6.42188 22.5 8.6625 22.5 11.475C22.5 13.35 21.7547 15.3891 20.2641 17.5922C18.7734 19.7953 16.5188 22.1812 13.5 24.75Z" fill="#E8E9E9"/>
</g>
</svg>
